<mxfile host="app.diagrams.net" modified="2022-11-15T12:30:18.432Z" agent="5.0 (Windows NT 10.0; Win64; x64) AppleWebKit/537.36 (KHTML, like Gecko) Chrome/107.0.0.0 Safari/537.36 Edg/107.0.1418.42" etag="h422jv4gZCGbUwxlJhzu" version="20.5.1" type="github">
  <diagram id="JlIdA_XBxedcKpCPROCg" name="Page-1">
    <mxGraphModel dx="1354" dy="718" grid="0" gridSize="10" guides="1" tooltips="1" connect="1" arrows="1" fold="1" page="1" pageScale="1" pageWidth="850" pageHeight="1100" math="0" shadow="0">
      <root>
        <mxCell id="0" />
        <mxCell id="1" parent="0" />
        <mxCell id="d9xygU03olsw6Gj9__bl-57" value="" style="whiteSpace=wrap;html=1;aspect=fixed;fillColor=none;strokeWidth=2;" vertex="1" parent="1">
          <mxGeometry x="460" y="510" width="130" height="130" as="geometry" />
        </mxCell>
        <mxCell id="d9xygU03olsw6Gj9__bl-53" value="" style="whiteSpace=wrap;html=1;aspect=fixed;fillColor=none;strokeWidth=2;" vertex="1" parent="1">
          <mxGeometry x="330" y="510" width="130" height="130" as="geometry" />
        </mxCell>
        <mxCell id="d9xygU03olsw6Gj9__bl-49" value="" style="whiteSpace=wrap;html=1;aspect=fixed;fillColor=none;strokeWidth=2;" vertex="1" parent="1">
          <mxGeometry x="200" y="510" width="130" height="130" as="geometry" />
        </mxCell>
        <mxCell id="d9xygU03olsw6Gj9__bl-41" value="" style="whiteSpace=wrap;html=1;aspect=fixed;fillColor=none;strokeWidth=2;" vertex="1" parent="1">
          <mxGeometry x="590" y="250" width="130" height="130" as="geometry" />
        </mxCell>
        <mxCell id="d9xygU03olsw6Gj9__bl-37" value="" style="whiteSpace=wrap;html=1;aspect=fixed;fillColor=none;strokeWidth=2;" vertex="1" parent="1">
          <mxGeometry x="590" y="120" width="130" height="130" as="geometry" />
        </mxCell>
        <mxCell id="d9xygU03olsw6Gj9__bl-71" value="" style="whiteSpace=wrap;html=1;aspect=fixed;fillColor=none;strokeWidth=2;" vertex="1" parent="1">
          <mxGeometry x="590" y="510" width="130" height="130" as="geometry" />
        </mxCell>
        <mxCell id="d9xygU03olsw6Gj9__bl-45" value="" style="whiteSpace=wrap;html=1;aspect=fixed;fillColor=none;strokeWidth=2;" vertex="1" parent="1">
          <mxGeometry x="590" y="380" width="130" height="130" as="geometry" />
        </mxCell>
        <mxCell id="d9xygU03olsw6Gj9__bl-34" value="" style="ellipse;whiteSpace=wrap;html=1;aspect=fixed;strokeWidth=2;fillColor=#000000;" vertex="1" parent="1">
          <mxGeometry x="647.5" y="177.5" width="15" height="15" as="geometry" />
        </mxCell>
        <mxCell id="d9xygU03olsw6Gj9__bl-35" value="&lt;font style=&quot;font-size: 20px;&quot;&gt;a&lt;sub&gt;4&lt;/sub&gt;&lt;/font&gt;" style="text;html=1;strokeColor=none;fillColor=none;align=center;verticalAlign=middle;whiteSpace=wrap;rounded=0;strokeWidth=2;" vertex="1" parent="1">
          <mxGeometry x="625" y="147.5" width="60" height="30" as="geometry" />
        </mxCell>
        <mxCell id="d9xygU03olsw6Gj9__bl-36" value="&lt;span style=&quot;font-size: 16px;&quot;&gt;(1,4)&lt;/span&gt;" style="text;html=1;strokeColor=none;fillColor=none;align=center;verticalAlign=middle;whiteSpace=wrap;rounded=0;strokeWidth=2;fontSize=16;" vertex="1" parent="1">
          <mxGeometry x="625" y="192.5" width="60" height="30" as="geometry" />
        </mxCell>
        <mxCell id="d9xygU03olsw6Gj9__bl-38" value="" style="ellipse;whiteSpace=wrap;html=1;aspect=fixed;strokeWidth=2;fillColor=#000000;" vertex="1" parent="1">
          <mxGeometry x="647.5" y="307.5" width="15" height="15" as="geometry" />
        </mxCell>
        <mxCell id="d9xygU03olsw6Gj9__bl-39" value="&lt;font style=&quot;font-size: 20px;&quot;&gt;b&lt;sub&gt;4&lt;/sub&gt;&lt;/font&gt;" style="text;html=1;strokeColor=none;fillColor=none;align=center;verticalAlign=middle;whiteSpace=wrap;rounded=0;strokeWidth=2;" vertex="1" parent="1">
          <mxGeometry x="625" y="277.5" width="60" height="30" as="geometry" />
        </mxCell>
        <mxCell id="d9xygU03olsw6Gj9__bl-40" value="&lt;span style=&quot;font-size: 16px;&quot;&gt;(2,4)&lt;/span&gt;" style="text;html=1;strokeColor=none;fillColor=none;align=center;verticalAlign=middle;whiteSpace=wrap;rounded=0;strokeWidth=2;fontSize=16;" vertex="1" parent="1">
          <mxGeometry x="625" y="322.5" width="60" height="30" as="geometry" />
        </mxCell>
        <mxCell id="d9xygU03olsw6Gj9__bl-42" value="" style="ellipse;whiteSpace=wrap;html=1;aspect=fixed;strokeWidth=2;fillColor=#000000;" vertex="1" parent="1">
          <mxGeometry x="647.5" y="437.5" width="15" height="15" as="geometry" />
        </mxCell>
        <mxCell id="d9xygU03olsw6Gj9__bl-43" value="&lt;font style=&quot;font-size: 20px;&quot;&gt;c&lt;sub&gt;4&lt;/sub&gt;&lt;/font&gt;" style="text;html=1;strokeColor=none;fillColor=none;align=center;verticalAlign=middle;whiteSpace=wrap;rounded=0;strokeWidth=2;" vertex="1" parent="1">
          <mxGeometry x="625" y="407.5" width="60" height="30" as="geometry" />
        </mxCell>
        <mxCell id="d9xygU03olsw6Gj9__bl-44" value="&lt;span style=&quot;font-size: 16px;&quot;&gt;(3,4)&lt;/span&gt;" style="text;html=1;strokeColor=none;fillColor=none;align=center;verticalAlign=middle;whiteSpace=wrap;rounded=0;strokeWidth=2;fontSize=16;" vertex="1" parent="1">
          <mxGeometry x="625" y="452.5" width="60" height="30" as="geometry" />
        </mxCell>
        <mxCell id="d9xygU03olsw6Gj9__bl-46" value="" style="ellipse;whiteSpace=wrap;html=1;aspect=fixed;strokeWidth=2;fillColor=#000000;" vertex="1" parent="1">
          <mxGeometry x="257.5" y="567.5" width="15" height="15" as="geometry" />
        </mxCell>
        <mxCell id="d9xygU03olsw6Gj9__bl-47" value="&lt;font style=&quot;font-size: 20px;&quot;&gt;d&lt;sub&gt;1&lt;/sub&gt;&lt;/font&gt;" style="text;html=1;strokeColor=none;fillColor=none;align=center;verticalAlign=middle;whiteSpace=wrap;rounded=0;strokeWidth=2;" vertex="1" parent="1">
          <mxGeometry x="235" y="537.5" width="60" height="30" as="geometry" />
        </mxCell>
        <mxCell id="d9xygU03olsw6Gj9__bl-48" value="&lt;span style=&quot;font-size: 16px;&quot;&gt;(4,1)&lt;/span&gt;" style="text;html=1;strokeColor=none;fillColor=none;align=center;verticalAlign=middle;whiteSpace=wrap;rounded=0;strokeWidth=2;fontSize=16;" vertex="1" parent="1">
          <mxGeometry x="235" y="582.5" width="60" height="30" as="geometry" />
        </mxCell>
        <mxCell id="d9xygU03olsw6Gj9__bl-50" value="" style="ellipse;whiteSpace=wrap;html=1;aspect=fixed;strokeWidth=2;fillColor=#000000;" vertex="1" parent="1">
          <mxGeometry x="387.5" y="567.5" width="15" height="15" as="geometry" />
        </mxCell>
        <mxCell id="d9xygU03olsw6Gj9__bl-51" value="&lt;font style=&quot;font-size: 20px;&quot;&gt;d&lt;sub&gt;2&lt;/sub&gt;&lt;/font&gt;" style="text;html=1;strokeColor=none;fillColor=none;align=center;verticalAlign=middle;whiteSpace=wrap;rounded=0;strokeWidth=2;" vertex="1" parent="1">
          <mxGeometry x="365" y="537.5" width="60" height="30" as="geometry" />
        </mxCell>
        <mxCell id="d9xygU03olsw6Gj9__bl-52" value="&lt;span style=&quot;font-size: 16px;&quot;&gt;(4,2)&lt;/span&gt;" style="text;html=1;strokeColor=none;fillColor=none;align=center;verticalAlign=middle;whiteSpace=wrap;rounded=0;strokeWidth=2;fontSize=16;" vertex="1" parent="1">
          <mxGeometry x="365" y="582.5" width="60" height="30" as="geometry" />
        </mxCell>
        <mxCell id="d9xygU03olsw6Gj9__bl-54" value="" style="ellipse;whiteSpace=wrap;html=1;aspect=fixed;strokeWidth=2;fillColor=#000000;" vertex="1" parent="1">
          <mxGeometry x="517.5" y="567.5" width="15" height="15" as="geometry" />
        </mxCell>
        <mxCell id="d9xygU03olsw6Gj9__bl-55" value="&lt;font style=&quot;font-size: 20px;&quot;&gt;d&lt;sub&gt;3&lt;/sub&gt;&lt;/font&gt;" style="text;html=1;strokeColor=none;fillColor=none;align=center;verticalAlign=middle;whiteSpace=wrap;rounded=0;strokeWidth=2;" vertex="1" parent="1">
          <mxGeometry x="495" y="537.5" width="60" height="30" as="geometry" />
        </mxCell>
        <mxCell id="d9xygU03olsw6Gj9__bl-56" value="&lt;span style=&quot;font-size: 16px;&quot;&gt;(4,3)&lt;/span&gt;" style="text;html=1;strokeColor=none;fillColor=none;align=center;verticalAlign=middle;whiteSpace=wrap;rounded=0;strokeWidth=2;fontSize=16;" vertex="1" parent="1">
          <mxGeometry x="495" y="582.5" width="60" height="30" as="geometry" />
        </mxCell>
        <mxCell id="d9xygU03olsw6Gj9__bl-58" value="" style="ellipse;whiteSpace=wrap;html=1;aspect=fixed;strokeWidth=2;fillColor=#000000;" vertex="1" parent="1">
          <mxGeometry x="647.5" y="567.5" width="15" height="15" as="geometry" />
        </mxCell>
        <mxCell id="d9xygU03olsw6Gj9__bl-59" value="&lt;font style=&quot;font-size: 20px;&quot;&gt;d&lt;sub&gt;4&lt;/sub&gt;&lt;/font&gt;" style="text;html=1;strokeColor=none;fillColor=none;align=center;verticalAlign=middle;whiteSpace=wrap;rounded=0;strokeWidth=2;" vertex="1" parent="1">
          <mxGeometry x="625" y="537.5" width="60" height="30" as="geometry" />
        </mxCell>
        <mxCell id="d9xygU03olsw6Gj9__bl-60" value="&lt;span style=&quot;font-size: 16px;&quot;&gt;(4,4)&lt;/span&gt;" style="text;html=1;strokeColor=none;fillColor=none;align=center;verticalAlign=middle;whiteSpace=wrap;rounded=0;strokeWidth=2;fontSize=16;" vertex="1" parent="1">
          <mxGeometry x="625" y="582.5" width="60" height="30" as="geometry" />
        </mxCell>
        <mxCell id="d9xygU03olsw6Gj9__bl-1" value="" style="whiteSpace=wrap;html=1;aspect=fixed;fillColor=none;strokeWidth=2;" vertex="1" parent="1">
          <mxGeometry x="200" y="120" width="130" height="130" as="geometry" />
        </mxCell>
        <mxCell id="d9xygU03olsw6Gj9__bl-2" value="" style="whiteSpace=wrap;html=1;aspect=fixed;fillColor=none;strokeWidth=2;" vertex="1" parent="1">
          <mxGeometry x="330" y="120" width="130" height="130" as="geometry" />
        </mxCell>
        <mxCell id="d9xygU03olsw6Gj9__bl-3" value="" style="whiteSpace=wrap;html=1;aspect=fixed;fillColor=none;strokeWidth=2;" vertex="1" parent="1">
          <mxGeometry x="460" y="120" width="130" height="130" as="geometry" />
        </mxCell>
        <mxCell id="d9xygU03olsw6Gj9__bl-5" value="" style="whiteSpace=wrap;html=1;aspect=fixed;fillColor=none;strokeWidth=2;" vertex="1" parent="1">
          <mxGeometry x="200" y="250" width="130" height="130" as="geometry" />
        </mxCell>
        <mxCell id="d9xygU03olsw6Gj9__bl-6" value="" style="whiteSpace=wrap;html=1;aspect=fixed;fillColor=#000000;strokeWidth=2;strokeColor=#23445d;sketch=0;shadow=0;fillStyle=hatch;" vertex="1" parent="1">
          <mxGeometry x="330" y="250" width="130" height="130" as="geometry" />
        </mxCell>
        <mxCell id="d9xygU03olsw6Gj9__bl-7" value="" style="whiteSpace=wrap;html=1;aspect=fixed;fillColor=#000000;strokeWidth=2;strokeColor=#23445d;sketch=0;shadow=0;fillStyle=hatch;" vertex="1" parent="1">
          <mxGeometry x="460" y="250" width="130" height="130" as="geometry" />
        </mxCell>
        <mxCell id="d9xygU03olsw6Gj9__bl-8" value="" style="whiteSpace=wrap;html=1;aspect=fixed;fillColor=none;strokeWidth=2;" vertex="1" parent="1">
          <mxGeometry x="200" y="380" width="130" height="130" as="geometry" />
        </mxCell>
        <mxCell id="d9xygU03olsw6Gj9__bl-9" value="" style="whiteSpace=wrap;html=1;aspect=fixed;fillColor=#000000;strokeWidth=2;strokeColor=#23445d;sketch=0;shadow=0;fillStyle=hatch;" vertex="1" parent="1">
          <mxGeometry x="330" y="380" width="130" height="130" as="geometry" />
        </mxCell>
        <mxCell id="d9xygU03olsw6Gj9__bl-10" value="" style="whiteSpace=wrap;html=1;aspect=fixed;fillColor=#000000;strokeWidth=2;strokeColor=#23445d;sketch=0;shadow=0;fillStyle=hatch;" vertex="1" parent="1">
          <mxGeometry x="460" y="380" width="130" height="130" as="geometry" />
        </mxCell>
        <mxCell id="d9xygU03olsw6Gj9__bl-13" value="" style="ellipse;whiteSpace=wrap;html=1;aspect=fixed;strokeWidth=2;fillColor=#000000;" vertex="1" parent="1">
          <mxGeometry x="257.5" y="177.5" width="15" height="15" as="geometry" />
        </mxCell>
        <mxCell id="d9xygU03olsw6Gj9__bl-14" value="" style="ellipse;whiteSpace=wrap;html=1;aspect=fixed;strokeWidth=2;fillColor=#000000;" vertex="1" parent="1">
          <mxGeometry x="387.5" y="177.5" width="15" height="15" as="geometry" />
        </mxCell>
        <mxCell id="d9xygU03olsw6Gj9__bl-15" value="" style="ellipse;whiteSpace=wrap;html=1;aspect=fixed;strokeWidth=2;fillColor=#000000;" vertex="1" parent="1">
          <mxGeometry x="517.5" y="177.5" width="15" height="15" as="geometry" />
        </mxCell>
        <mxCell id="d9xygU03olsw6Gj9__bl-16" value="" style="ellipse;whiteSpace=wrap;html=1;aspect=fixed;strokeWidth=2;fillColor=#000000;" vertex="1" parent="1">
          <mxGeometry x="257.5" y="307.5" width="15" height="15" as="geometry" />
        </mxCell>
        <mxCell id="d9xygU03olsw6Gj9__bl-17" value="" style="ellipse;whiteSpace=wrap;html=1;aspect=fixed;strokeWidth=2;fillColor=#000000;" vertex="1" parent="1">
          <mxGeometry x="387.5" y="307.5" width="15" height="15" as="geometry" />
        </mxCell>
        <mxCell id="d9xygU03olsw6Gj9__bl-18" value="" style="ellipse;whiteSpace=wrap;html=1;aspect=fixed;strokeWidth=2;fillColor=#000000;" vertex="1" parent="1">
          <mxGeometry x="517.5" y="307.5" width="15" height="15" as="geometry" />
        </mxCell>
        <mxCell id="d9xygU03olsw6Gj9__bl-19" value="" style="ellipse;whiteSpace=wrap;html=1;aspect=fixed;strokeWidth=2;fillColor=#000000;" vertex="1" parent="1">
          <mxGeometry x="257.5" y="437.5" width="15" height="15" as="geometry" />
        </mxCell>
        <mxCell id="d9xygU03olsw6Gj9__bl-20" value="" style="ellipse;whiteSpace=wrap;html=1;aspect=fixed;strokeWidth=2;fillColor=#000000;" vertex="1" parent="1">
          <mxGeometry x="387.5" y="437.5" width="15" height="15" as="geometry" />
        </mxCell>
        <mxCell id="d9xygU03olsw6Gj9__bl-21" value="" style="ellipse;whiteSpace=wrap;html=1;aspect=fixed;strokeWidth=2;fillColor=#000000;" vertex="1" parent="1">
          <mxGeometry x="517.5" y="437.5" width="15" height="15" as="geometry" />
        </mxCell>
        <mxCell id="d9xygU03olsw6Gj9__bl-22" value="&lt;font style=&quot;font-size: 20px;&quot;&gt;a&lt;sub&gt;1&lt;/sub&gt;&lt;/font&gt;" style="text;html=1;strokeColor=none;fillColor=none;align=center;verticalAlign=middle;whiteSpace=wrap;rounded=0;strokeWidth=2;" vertex="1" parent="1">
          <mxGeometry x="235" y="147.5" width="60" height="30" as="geometry" />
        </mxCell>
        <mxCell id="d9xygU03olsw6Gj9__bl-23" value="&lt;font style=&quot;font-size: 20px;&quot;&gt;a&lt;sub&gt;2&lt;/sub&gt;&lt;/font&gt;" style="text;html=1;strokeColor=none;fillColor=none;align=center;verticalAlign=middle;whiteSpace=wrap;rounded=0;strokeWidth=2;" vertex="1" parent="1">
          <mxGeometry x="367" y="148" width="60" height="30" as="geometry" />
        </mxCell>
        <mxCell id="d9xygU03olsw6Gj9__bl-24" value="&lt;font style=&quot;font-size: 20px;&quot;&gt;a&lt;sub&gt;3&lt;/sub&gt;&lt;/font&gt;" style="text;html=1;strokeColor=none;fillColor=none;align=center;verticalAlign=middle;whiteSpace=wrap;rounded=0;strokeWidth=2;" vertex="1" parent="1">
          <mxGeometry x="495" y="147.5" width="60" height="30" as="geometry" />
        </mxCell>
        <mxCell id="d9xygU03olsw6Gj9__bl-25" value="&lt;font style=&quot;font-size: 20px;&quot;&gt;b&lt;sub&gt;2&lt;/sub&gt;&lt;/font&gt;" style="text;html=1;strokeColor=none;fillColor=none;align=center;verticalAlign=middle;whiteSpace=wrap;rounded=0;strokeWidth=2;" vertex="1" parent="1">
          <mxGeometry x="367" y="270.5" width="60" height="30" as="geometry" />
        </mxCell>
        <mxCell id="d9xygU03olsw6Gj9__bl-26" value="&lt;font style=&quot;font-size: 20px;&quot;&gt;b&lt;sub&gt;1&lt;/sub&gt;&lt;/font&gt;" style="text;html=1;strokeColor=none;fillColor=none;align=center;verticalAlign=middle;whiteSpace=wrap;rounded=0;strokeWidth=2;" vertex="1" parent="1">
          <mxGeometry x="235" y="270" width="60" height="30" as="geometry" />
        </mxCell>
        <mxCell id="d9xygU03olsw6Gj9__bl-27" value="&lt;font style=&quot;font-size: 20px;&quot;&gt;b&lt;sub&gt;3&lt;/sub&gt;&lt;/font&gt;" style="text;html=1;strokeColor=none;fillColor=none;align=center;verticalAlign=middle;whiteSpace=wrap;rounded=0;strokeWidth=2;" vertex="1" parent="1">
          <mxGeometry x="495" y="270" width="60" height="30" as="geometry" />
        </mxCell>
        <mxCell id="d9xygU03olsw6Gj9__bl-28" value="&lt;font style=&quot;font-size: 20px;&quot;&gt;c&lt;sub&gt;1&lt;/sub&gt;&lt;/font&gt;" style="text;html=1;strokeColor=none;fillColor=none;align=center;verticalAlign=middle;whiteSpace=wrap;rounded=0;strokeWidth=2;" vertex="1" parent="1">
          <mxGeometry x="235" y="407" width="60" height="30" as="geometry" />
        </mxCell>
        <mxCell id="d9xygU03olsw6Gj9__bl-29" value="&lt;font style=&quot;font-size: 20px;&quot;&gt;c&lt;sub&gt;2&lt;/sub&gt;&lt;/font&gt;" style="text;html=1;strokeColor=none;fillColor=none;align=center;verticalAlign=middle;whiteSpace=wrap;rounded=0;strokeWidth=2;" vertex="1" parent="1">
          <mxGeometry x="367" y="407.5" width="60" height="30" as="geometry" />
        </mxCell>
        <mxCell id="d9xygU03olsw6Gj9__bl-30" value="&lt;font style=&quot;font-size: 20px;&quot;&gt;c&lt;sub&gt;3&lt;/sub&gt;&lt;/font&gt;" style="text;html=1;strokeColor=none;fillColor=none;align=center;verticalAlign=middle;whiteSpace=wrap;rounded=0;strokeWidth=2;" vertex="1" parent="1">
          <mxGeometry x="495" y="407" width="60" height="30" as="geometry" />
        </mxCell>
        <mxCell id="d9xygU03olsw6Gj9__bl-31" value="&lt;span style=&quot;font-size: 16px;&quot;&gt;(1,1)&lt;/span&gt;" style="text;html=1;strokeColor=none;fillColor=none;align=center;verticalAlign=middle;whiteSpace=wrap;rounded=0;strokeWidth=2;fontSize=16;" vertex="1" parent="1">
          <mxGeometry x="235" y="192.5" width="60" height="30" as="geometry" />
        </mxCell>
        <mxCell id="d9xygU03olsw6Gj9__bl-32" value="&lt;span style=&quot;font-size: 16px;&quot;&gt;(1,2)&lt;/span&gt;" style="text;html=1;strokeColor=none;fillColor=none;align=center;verticalAlign=middle;whiteSpace=wrap;rounded=0;strokeWidth=2;fontSize=16;" vertex="1" parent="1">
          <mxGeometry x="365" y="192.5" width="60" height="30" as="geometry" />
        </mxCell>
        <mxCell id="d9xygU03olsw6Gj9__bl-62" value="&lt;span style=&quot;font-size: 16px;&quot;&gt;(1,3)&lt;/span&gt;" style="text;html=1;strokeColor=none;fillColor=none;align=center;verticalAlign=middle;whiteSpace=wrap;rounded=0;strokeWidth=2;fontSize=16;" vertex="1" parent="1">
          <mxGeometry x="495" y="192.5" width="60" height="30" as="geometry" />
        </mxCell>
        <mxCell id="d9xygU03olsw6Gj9__bl-63" value="" style="ellipse;whiteSpace=wrap;html=1;aspect=fixed;strokeWidth=2;fillColor=#000000;" vertex="1" parent="1">
          <mxGeometry x="453" y="373" width="15" height="15" as="geometry" />
        </mxCell>
        <mxCell id="d9xygU03olsw6Gj9__bl-64" value="" style="ellipse;whiteSpace=wrap;html=1;aspect=fixed;shadow=0;glass=1;sketch=0;fillStyle=hatch;strokeWidth=2;fontSize=16;fillColor=#000000;" vertex="1" parent="1">
          <mxGeometry x="448.25" y="368.25" width="24.5" height="24.5" as="geometry" />
        </mxCell>
        <mxCell id="d9xygU03olsw6Gj9__bl-65" value="&lt;span style=&quot;font-size: 16px;&quot;&gt;(2,1)&lt;/span&gt;" style="text;html=1;strokeColor=none;fillColor=none;align=center;verticalAlign=middle;whiteSpace=wrap;rounded=0;strokeWidth=2;fontSize=16;" vertex="1" parent="1">
          <mxGeometry x="235" y="322.5" width="60" height="30" as="geometry" />
        </mxCell>
        <mxCell id="d9xygU03olsw6Gj9__bl-66" value="&lt;span style=&quot;font-size: 16px;&quot;&gt;(2,2)&lt;/span&gt;" style="text;html=1;strokeColor=none;fillColor=none;align=center;verticalAlign=middle;whiteSpace=wrap;rounded=0;strokeWidth=2;fontSize=16;" vertex="1" parent="1">
          <mxGeometry x="365" y="322.5" width="60" height="30" as="geometry" />
        </mxCell>
        <mxCell id="d9xygU03olsw6Gj9__bl-67" value="&lt;span style=&quot;font-size: 16px;&quot;&gt;(2,3)&lt;/span&gt;" style="text;html=1;strokeColor=none;fillColor=none;align=center;verticalAlign=middle;whiteSpace=wrap;rounded=0;strokeWidth=2;fontSize=16;" vertex="1" parent="1">
          <mxGeometry x="495" y="322.5" width="60" height="30" as="geometry" />
        </mxCell>
        <mxCell id="d9xygU03olsw6Gj9__bl-68" value="&lt;span style=&quot;font-size: 16px;&quot;&gt;(3,1)&lt;/span&gt;" style="text;html=1;strokeColor=none;fillColor=none;align=center;verticalAlign=middle;whiteSpace=wrap;rounded=0;strokeWidth=2;fontSize=16;" vertex="1" parent="1">
          <mxGeometry x="235" y="452.5" width="60" height="30" as="geometry" />
        </mxCell>
        <mxCell id="d9xygU03olsw6Gj9__bl-69" value="&lt;span style=&quot;font-size: 16px;&quot;&gt;(3,2)&lt;/span&gt;" style="text;html=1;strokeColor=none;fillColor=none;align=center;verticalAlign=middle;whiteSpace=wrap;rounded=0;strokeWidth=2;fontSize=16;" vertex="1" parent="1">
          <mxGeometry x="365" y="451" width="60" height="30" as="geometry" />
        </mxCell>
        <mxCell id="d9xygU03olsw6Gj9__bl-70" value="&lt;span style=&quot;font-size: 16px;&quot;&gt;(3,3)&lt;/span&gt;" style="text;html=1;strokeColor=none;fillColor=none;align=center;verticalAlign=middle;whiteSpace=wrap;rounded=0;strokeWidth=2;fontSize=16;" vertex="1" parent="1">
          <mxGeometry x="495" y="452.5" width="60" height="30" as="geometry" />
        </mxCell>
        <mxCell id="d9xygU03olsw6Gj9__bl-72" value="&lt;span style=&quot;font-size: 20px;&quot;&gt;&lt;b&gt;AP&lt;/b&gt;&lt;/span&gt;" style="text;html=1;strokeColor=none;fillColor=none;align=center;verticalAlign=middle;whiteSpace=wrap;rounded=0;strokeWidth=2;" vertex="1" parent="1">
          <mxGeometry x="430.5" y="388" width="60" height="30" as="geometry" />
        </mxCell>
        <mxCell id="d9xygU03olsw6Gj9__bl-76" value="" style="whiteSpace=wrap;html=1;aspect=fixed;shadow=0;glass=0;sketch=0;fillStyle=hatch;strokeWidth=1;fontSize=16;fillColor=#000000;perimeterSpacing=0;" vertex="1" parent="1">
          <mxGeometry x="200" y="669" width="30" height="30" as="geometry" />
        </mxCell>
        <mxCell id="d9xygU03olsw6Gj9__bl-77" value="" style="whiteSpace=wrap;html=1;aspect=fixed;shadow=0;glass=0;sketch=0;fillStyle=auto;strokeWidth=1;fontSize=16;fillColor=none;perimeterSpacing=0;" vertex="1" parent="1">
          <mxGeometry x="200" y="706" width="30" height="30" as="geometry" />
        </mxCell>
        <mxCell id="d9xygU03olsw6Gj9__bl-78" value="&lt;span style=&quot;font-size: 20px;&quot;&gt;&lt;font face=&quot;Times New Roman&quot;&gt;Near User Region&lt;/font&gt;&lt;/span&gt;" style="text;html=1;strokeColor=none;fillColor=none;align=left;verticalAlign=middle;whiteSpace=wrap;rounded=0;strokeWidth=2;" vertex="1" parent="1">
          <mxGeometry x="251" y="669" width="173" height="32" as="geometry" />
        </mxCell>
        <mxCell id="d9xygU03olsw6Gj9__bl-79" value="&lt;span style=&quot;font-size: 20px;&quot;&gt;&lt;font face=&quot;Times New Roman&quot;&gt;Far User Region&lt;/font&gt;&lt;/span&gt;" style="text;html=1;strokeColor=none;fillColor=none;align=left;verticalAlign=middle;whiteSpace=wrap;rounded=0;strokeWidth=2;" vertex="1" parent="1">
          <mxGeometry x="251" y="705" width="173" height="32" as="geometry" />
        </mxCell>
      </root>
    </mxGraphModel>
  </diagram>
</mxfile>
